<?xml version="1.0" encoding="UTF-8" standalone="no"?>
<!DOCTYPE svg PUBLIC "-//W3C//DTD SVG 1.1//EN"
 "http://www.w3.org/Graphics/SVG/1.1/DTD/svg11.dtd">
<!-- Generated by graphviz version 2.47.0 (20210316.0004)
 -->
<!-- Title: dependencies Pages: 1 -->
<svg width="613pt" height="295pt"
 viewBox="0.00 0.00 613.00 295.00" xmlns="http://www.w3.org/2000/svg" xmlns:xlink="http://www.w3.org/1999/xlink">
<g id="graph0" class="graph" transform="scale(1 1) rotate(0) translate(4 291)">
<title>dependencies</title>
<polygon fill="white" stroke="transparent" points="-4,4 -4,-291 609,-291 609,4 -4,4"/>
<text text-anchor="start" x="281.51" y="-42.4" font-family="Times-12" font-weight="bold" font-size="14.00">Legend</text>
<polygon fill="#ffffb3" stroke="transparent" points="68.5,-10 68.5,-30 88.5,-30 88.5,-10 68.5,-10"/>
<text text-anchor="start" x="92.13" y="-15.4" font-family="Times-12" font-size="14.00"> &#160;Declarations</text>
<polygon fill="#8dd3c7" stroke="transparent" points="181.5,-10 181.5,-30 201.5,-30 201.5,-10 181.5,-10"/>
<text text-anchor="start" x="205.23" y="-15.4" font-family="Times-12" font-size="14.00"> &#160;Module</text>
<polygon fill="#80b1d3" stroke="transparent" points="267.5,-10 267.5,-30 287.5,-30 287.5,-10 267.5,-10"/>
<text text-anchor="start" x="291.28" y="-15.4" font-family="Times-12" font-size="14.00"> &#160;Bootstrap</text>
<polygon fill="#fdb462" stroke="transparent" points="364.5,-10 364.5,-30 384.5,-30 384.5,-10 364.5,-10"/>
<text text-anchor="start" x="388.17" y="-15.4" font-family="Times-12" font-size="14.00"> &#160;Providers</text>
<polygon fill="#fb8072" stroke="transparent" points="460.5,-10 460.5,-30 480.5,-30 480.5,-10 460.5,-10"/>
<text text-anchor="start" x="484.23" y="-15.4" font-family="Times-12" font-size="14.00"> &#160;Exports</text>
<g id="clust19" class="cluster">
<title>cluster_UsersModule</title>
<polygon fill="none" stroke="black" stroke-dasharray="1,5" points="8,-70 8,-279 164,-279 164,-70 8,-70"/>
</g>
<g id="clust22" class="cluster">
<title>cluster_UsersModule_exports</title>
<polygon fill="none" stroke="black" points="38,-219 38,-271 148,-271 148,-219 38,-219"/>
</g>
<g id="clust24" class="cluster">
<title>cluster_UsersModule_providers</title>
<polygon fill="none" stroke="black" points="16,-78 16,-130 156,-130 156,-78 16,-78"/>
</g>
<g id="clust7" class="cluster">
<title>cluster_AuthModule</title>
<polygon fill="none" stroke="black" stroke-dasharray="1,5" points="447,-70 447,-279 597,-279 597,-70 447,-70"/>
</g>
<g id="clust10" class="cluster">
<title>cluster_AuthModule_exports</title>
<polygon fill="none" stroke="black" points="462,-219 462,-271 568,-271 568,-219 462,-219"/>
</g>
<g id="clust12" class="cluster">
<title>cluster_AuthModule_providers</title>
<polygon fill="none" stroke="black" points="455,-78 455,-130 589,-130 589,-78 455,-78"/>
</g>
<g id="clust1" class="cluster">
<title>cluster_AppModule</title>
<polygon fill="none" stroke="black" stroke-dasharray="1,5" points="172,-146 172,-271 432,-271 432,-146 172,-146"/>
</g>
<g id="clust3" class="cluster">
<title>cluster_AppModule_imports</title>
<polygon fill="none" stroke="black" points="318,-154 318,-206 424,-206 424,-154 318,-154"/>
</g>
<g id="clust6" class="cluster">
<title>cluster_AppModule_providers</title>
<polygon fill="none" stroke="black" points="180,-154 180,-206 310,-206 310,-154 180,-154"/>
</g>
<g id="clust13" class="cluster">
<title>cluster_PostsModule</title>
<polygon fill="none" stroke="black" stroke-dasharray="1,5" points="287,-70 287,-138 439,-138 439,-70 287,-70"/>
</g>
<g id="clust18" class="cluster">
<title>cluster_PostsModule_providers</title>
<polygon fill="none" stroke="black" points="295,-78 295,-130 431,-130 431,-78 295,-78"/>
</g>
<!-- AuthModule -->
<g id="node1" class="node">
<title>AuthModule</title>
<polygon fill="#8dd3c7" stroke="black" points="558.55,-198 555.55,-202 534.55,-202 531.55,-198 471.45,-198 471.45,-162 558.55,-162 558.55,-198"/>
<text text-anchor="middle" x="515" y="-175.8" font-family="Times,serif" font-size="14.00">AuthModule</text>
</g>
<!-- AppModule -->
<g id="node4" class="node">
<title>AppModule</title>
<polygon fill="#8dd3c7" stroke="black" points="349.66,-263 346.66,-267 325.66,-267 322.66,-263 266.34,-263 266.34,-227 349.66,-227 349.66,-263"/>
<text text-anchor="middle" x="308" y="-240.8" font-family="Times,serif" font-size="14.00">AppModule</text>
</g>
<!-- AuthModule&#45;&gt;AppModule -->
<g id="edge1" class="edge">
<title>AuthModule&#45;&gt;AppModule</title>
<path fill="none" stroke="black" d="M471.31,-180C468.33,-180 466.48,-180 466.48,-180 466.48,-180 466.48,-245 466.48,-245 466.48,-245 360.05,-245 360.05,-245"/>
<polygon fill="black" stroke="black" points="360.05,-241.5 350.05,-245 360.05,-248.5 360.05,-241.5"/>
</g>
<!-- AuthService  -->
<g id="node6" class="node">
<title>AuthService </title>
<polygon fill="#fb8072" stroke="black" points="559.98,-263 470.02,-263 470.02,-227 559.98,-227 559.98,-263"/>
<text text-anchor="middle" x="515" y="-240.8" font-family="Times,serif" font-size="14.00">AuthService </text>
</g>
<!-- AuthModule&#45;&gt;AuthService  -->
<g id="edge5" class="edge">
<title>AuthModule&#45;&gt;AuthService </title>
<path fill="none" stroke="black" stroke-dasharray="5,2" d="M515,-198.11C515,-198.11 515,-216.99 515,-216.99"/>
<polygon fill="black" stroke="black" points="511.5,-216.99 515,-226.99 518.5,-216.99 511.5,-216.99"/>
</g>
<!-- PostsModule -->
<g id="node2" class="node">
<title>PostsModule</title>
<polygon fill="#8dd3c7" stroke="black" points="415.61,-198 412.61,-202 391.61,-202 388.61,-198 326.39,-198 326.39,-162 415.61,-162 415.61,-198"/>
<text text-anchor="middle" x="371" y="-175.8" font-family="Times,serif" font-size="14.00">PostsModule</text>
</g>
<!-- PostsModule&#45;&gt;AppModule -->
<g id="edge2" class="edge">
<title>PostsModule&#45;&gt;AppModule</title>
<path fill="none" stroke="black" d="M338.14,-198.11C338.14,-198.11 338.14,-216.99 338.14,-216.99"/>
<polygon fill="black" stroke="black" points="334.64,-216.99 338.14,-226.99 341.64,-216.99 334.64,-216.99"/>
</g>
<!-- UsersModule -->
<g id="node3" class="node">
<title>UsersModule</title>
<polygon fill="#8dd3c7" stroke="black" points="138.92,-198 135.92,-202 114.92,-202 111.92,-198 47.08,-198 47.08,-162 138.92,-162 138.92,-198"/>
<text text-anchor="middle" x="93" y="-175.8" font-family="Times,serif" font-size="14.00">UsersModule</text>
</g>
<!-- UsersModule&#45;&gt;AppModule -->
<g id="edge3" class="edge">
<title>UsersModule&#45;&gt;AppModule</title>
<path fill="none" stroke="black" d="M138.77,-180C141.89,-180 143.83,-180 143.83,-180 143.83,-180 143.83,-245 143.83,-245 143.83,-245 256.15,-245 256.15,-245"/>
<polygon fill="black" stroke="black" points="256.15,-248.5 266.15,-245 256.15,-241.5 256.15,-248.5"/>
</g>
<!-- UsersService  -->
<g id="node9" class="node">
<title>UsersService </title>
<polygon fill="#fb8072" stroke="black" points="139.85,-263 46.15,-263 46.15,-227 139.85,-227 139.85,-263"/>
<text text-anchor="middle" x="93" y="-240.8" font-family="Times,serif" font-size="14.00">UsersService </text>
</g>
<!-- UsersModule&#45;&gt;UsersService  -->
<g id="edge8" class="edge">
<title>UsersModule&#45;&gt;UsersService </title>
<path fill="none" stroke="black" stroke-dasharray="5,2" d="M93,-198.11C93,-198.11 93,-216.99 93,-216.99"/>
<polygon fill="black" stroke="black" points="89.5,-216.99 93,-226.99 96.5,-216.99 89.5,-216.99"/>
</g>
<!-- AppService -->
<g id="node5" class="node">
<title>AppService</title>
<ellipse fill="#fdb462" stroke="black" cx="245" cy="-180" rx="56.74" ry="18"/>
<text text-anchor="middle" x="245" y="-175.8" font-family="Times,serif" font-size="14.00">AppService</text>
</g>
<!-- AppService&#45;&gt;AppModule -->
<g id="edge4" class="edge">
<title>AppService&#45;&gt;AppModule</title>
<path fill="none" stroke="black" d="M283.9,-193.15C283.9,-193.15 283.9,-216.69 283.9,-216.69"/>
<polygon fill="black" stroke="black" points="280.4,-216.69 283.9,-226.69 287.4,-216.69 280.4,-216.69"/>
</g>
<!-- AuthService -->
<g id="node7" class="node">
<title>AuthService</title>
<ellipse fill="#fdb462" stroke="black" cx="522" cy="-104" rx="59.11" ry="18"/>
<text text-anchor="middle" x="522" y="-99.8" font-family="Times,serif" font-size="14.00">AuthService</text>
</g>
<!-- AuthService&#45;&gt;AuthModule -->
<g id="edge6" class="edge">
<title>AuthService&#45;&gt;AuthModule</title>
<path fill="none" stroke="black" d="M515,-122.01C515,-122.01 515,-151.85 515,-151.85"/>
<polygon fill="black" stroke="black" points="511.5,-151.85 515,-161.85 518.5,-151.85 511.5,-151.85"/>
</g>
<!-- PostsService -->
<g id="node8" class="node">
<title>PostsService</title>
<ellipse fill="#fdb462" stroke="black" cx="363" cy="-104" rx="60.27" ry="18"/>
<text text-anchor="middle" x="363" y="-99.8" font-family="Times,serif" font-size="14.00">PostsService</text>
</g>
<!-- PostsService&#45;&gt;PostsModule -->
<g id="edge7" class="edge">
<title>PostsService&#45;&gt;PostsModule</title>
<path fill="none" stroke="black" d="M371,-122.01C371,-122.01 371,-151.85 371,-151.85"/>
<polygon fill="black" stroke="black" points="367.5,-151.85 371,-161.85 374.5,-151.85 367.5,-151.85"/>
</g>
<!-- UsersService -->
<g id="node10" class="node">
<title>UsersService</title>
<ellipse fill="#fdb462" stroke="black" cx="86" cy="-104" rx="61.95" ry="18"/>
<text text-anchor="middle" x="86" y="-99.8" font-family="Times,serif" font-size="14.00">UsersService</text>
</g>
<!-- UsersService&#45;&gt;UsersModule -->
<g id="edge9" class="edge">
<title>UsersService&#45;&gt;UsersModule</title>
<path fill="none" stroke="black" d="M93,-122.01C93,-122.01 93,-151.85 93,-151.85"/>
<polygon fill="black" stroke="black" points="89.5,-151.85 93,-161.85 96.5,-151.85 89.5,-151.85"/>
</g>
</g>
</svg>
